<svg xmlns="http://www.w3.org/2000/svg" width="3607" height="965" viewBox="0 0 14428 3860"><path fill="#37db70" d="m2676.9995 3838.9983-810.999-1837h420.998l570.999 1354h5.004l570.999-1354h402.999l-815.999 1837Z"/><path fill="#37db70" d="M4894.999 3526.9993c-362 0-568-259-568-605 0-347 206-606 568-606 363 0 568 259 568 606 0 346-205 605-568 605m0-1541c-538 0-946 376-946 936s408 936 946 936c539 0 947-376 947-936s-408-936-947-936"/><path fill="#37db70" d="m705.9998 3163.9993 307-706h5l307 706Zm149-1162-855 1837h413l157-366h888l160 366h432l-848-1837Z"/><path fill="#37db70" d="M8406.998 3526.9993c-362 0-568-259-568-605 0-347 206-606 568-606 363 0 568 259 568 606 0 346-205 605-568 605m0-1541c-538 0-946 376-946 936s408 936 946 936c539 0 947-376 947-936s-408-936-947-936"/><path fill="#37db70" d="M11078.998 302.9999c746.999 293 1275 1240 1527.999 2048l1819-2349z"/><path fill="#37db70" d="M10502.998 379.9999c-600 0-901 526-840 1048l1815.999-533c-162-216-543.999-515-975.999-515"/><path fill="#37db70" d="M11065.998 3257.999h-5.001l-982-1256h-372.999v1837h376v-1256h5l981.999 1256h373.001v-1837h-376Z"/><path fill="#37db70" d="M7308.9985 3512.999h-742v-1511h-373v1837h1357c-104-83-192-213-242-326"/></svg>