<?xml version="1.0" encoding="UTF-8"?>
<!-- Generator: Adobe Illustrator 23.1.1, SVG Export Plug-In . SVG Version: 6.00 Build 0)  -->
<svg version="1.1" id="Layer_1" xmlns="http://www.w3.org/2000/svg" xmlns:xlink="http://www.w3.org/1999/xlink" x="0px" y="0px" viewBox="58 100 100 200" style="enable-background:new 0 0 0 0;" xml:space="preserve">
<style type="text/css">
	.st0{fill:#139A49;}
	.st1{fill:#114A3D;}
</style>
<g>
	<path class="st0" d="M89.1,269.4c0-27.3,0-53.4,0-79.5c0-1.3,0-2.6,0.8-3.8c10.8-15.9,21.5-31.7,32.3-47.7c1.6,1.5,0.9,3,0.9,4.4   c0,24.1,0,48.2,0.1,72.3c0,2.5-0.2,4.8-1.7,7c-10.1,14.8-20.1,29.6-30.1,44.4C90.8,267.2,90.3,267.8,89.1,269.4z"/>
	<path class="st0" d="M84.8,189.1c0,2.8,0,4.9,0,6.9c0,23.6-0.1,47.2,0.1,70.8c0,3.7-1.2,5.4-4.6,6.7c-8.7,3.4-17.3,7.1-25.9,10.9   c-2.9,1.3-3.7,0.6-3.7-2.4c0.1-25.2,0-50.5,0-75.7c0-1.5,0-2.9,1.7-3.6C63.1,198.3,73.6,193.8,84.8,189.1z"/>
	<path class="st0" d="M161.3,162.4c0,12.5,0,24.9,0,37.4c0,2.3-0.3,3.9-2.8,4.9c-9.3,3.7-18.5,7.6-27.7,11.7   c-2.7,1.2-3.3,0.7-3.3-2.2c0.1-25.3,0.1-50.5,0-75.8c0-2.3,0.6-3.5,2.9-4.4c9.1-3.7,18.2-7.5,27.2-11.5c3-1.3,3.9-0.9,3.8,2.5   C161.2,137.5,161.3,150,161.3,162.4z"/>
	
</g>
</svg>